HIERARCHY
ROOT root
{
	OFFSET	0	13.1	24.9
	CHANNELS 6  Xposition Yposition Zposition Xrotation Yrotation Zrotation
	JOINT spine_1
	{
		OFFSET	0	9.99999	0
		CHANNELS 3  Xrotation Yrotation Zrotation
		JOINT spine_2
		{
			OFFSET	0	112	-10
			CHANNELS 3  Xrotation Yrotation Zrotation
			JOINT spine_3
			{
				OFFSET	0	206.5	19.3
				CHANNELS 3  Xrotation Yrotation Zrotation
				JOINT spine_4
				{
					OFFSET	0	110.4	14.6
					CHANNELS 3  Xrotation Yrotation Zrotation
					JOINT neck_1
					{
						OFFSET	0	71.8	-50.3
						CHANNELS 3  Xrotation Yrotation Zrotation
						JOINT neck_2
						{
							OFFSET	0	86.2	-25.8
							CHANNELS 3  Xrotation Yrotation Zrotation
							JOINT head_ee
							{
								OFFSET	0	179.8	-8.7
								CHANNELS 3  Xrotation Yrotation Zrotation
								End Site
								{
									OFFSET	1	0	0
								}
							}
						}
					}
					JOINT left_clavicle
					{
						OFFSET	-43.2	22.4	-70.8
						CHANNELS 3  Xrotation Yrotation Zrotation
						JOINT left_shoulder
						{
							OFFSET	-93.9	-5.79999	48.7
							CHANNELS 3  Xrotation Yrotation Zrotation
							JOINT left_elbow
							{
								OFFSET	-291.4	-30.8	15.2
								CHANNELS 3  Xrotation Yrotation Zrotation
								JOINT left_lowarm_twist
								{
									OFFSET	-110.7	-3.89999	13.6
									CHANNELS 3  Xrotation Yrotation Zrotation
									JOINT left_hand
									{
										OFFSET	-110.7	-3.89999	13.6
										CHANNELS 3  Xrotation Yrotation Zrotation
										JOINT left_ee
										{
											OFFSET	-80.8	-5.10001	12.1
											CHANNELS 3  Xrotation Yrotation Zrotation
											End Site
											{
												OFFSET	1	0	0
											}
										}
									}
								}
							}
						}
					}
					JOINT right_clavicle
					{
						OFFSET	43.2	22.4	-70.8
						CHANNELS 3  Xrotation Yrotation Zrotation
						JOINT right_shoulder
						{
							OFFSET	93.9	-5.79999	48.7
							CHANNELS 3  Xrotation Yrotation Zrotation
							JOINT right_elbow
							{
								OFFSET	291.4	-30.8	15.2
								CHANNELS 3  Xrotation Yrotation Zrotation
								JOINT right_lowarm_twist
								{
									OFFSET	110.7	-3.89999	13.6
									CHANNELS 3  Xrotation Yrotation Zrotation
									JOINT right_hand
									{
										OFFSET	110.7	-3.89999	13.6
										CHANNELS 3  Xrotation Yrotation Zrotation
										JOINT right_ee
										{
											OFFSET	80.8	-5.10001	12.1
											CHANNELS 3  Xrotation Yrotation Zrotation
											End Site
											{
												OFFSET	1	0	0
											}
										}
									}
								}
							}
						}
					}
				}
			}
		}
	}
	JOINT left_hip
	{
		OFFSET	-82.8	-127.5	0.300001
		CHANNELS 3  Xrotation Yrotation Zrotation
		JOINT left_knee
		{
			OFFSET	-28.2	-396.7	2.2
			CHANNELS 3  Xrotation Yrotation Zrotation
			JOINT left_ankle
			{
				OFFSET	-11.7	-411.3	35.4
				CHANNELS 3  Xrotation Yrotation Zrotation
				JOINT left_toes
				{
					OFFSET	0	-60	-88.6
					CHANNELS 3  Xrotation Yrotation Zrotation
					JOINT left_foot_ee
					{
						OFFSET	-22.5	-16.5	-42.2
						CHANNELS 3  Xrotation Yrotation Zrotation
						End Site
						{
							OFFSET	1	0	0
						}
					}
				}
			}
		}
	}
	JOINT right_hip
	{
		OFFSET	82.8	-127.5	0.300001
		CHANNELS 3  Xrotation Yrotation Zrotation
		JOINT right_knee
		{
			OFFSET	28.2	-396.7	2.2
			CHANNELS 3  Xrotation Yrotation Zrotation
			JOINT right_ankle
			{
				OFFSET	11.7	-411.3	35.4
				CHANNELS 3  Xrotation Yrotation Zrotation
				JOINT right_toes
				{
					OFFSET	0	-60	-88.6
					CHANNELS 3  Xrotation Yrotation Zrotation
					JOINT right_foot_ee
					{
						OFFSET	22.5	-16.5	-42.2
						CHANNELS 3  Xrotation Yrotation Zrotation
						End Site
						{
							OFFSET	1	0	0
						}
					}
				}
			}
		}
	}
}
MOTION
Frames: 14
Frame Time: 0.02
831.208008679 633.058 -1873.31887293 5.47856590563 17.7648027187 16.07824873 -2.00548 -1.25669 -5.67414 -1.98802 -0.893698 -5.7423 -1.87802 0.523332 -5.78766 -1.92451 -0.395708 -5.79775 -3.80686 4.68492 3.02229 -3.77608 6.23257 3.84595 -0.0 0.0 -0.0 9.92643 -0.270508 19.5158 4.04267 -8.02576 48.5045 1.84129 -42.3645 0.713586 18.138 0.278609 -2.29055 -0.342209 -11.7725 -7.32925 -0.0 0.0 -0.0 4.73115 5.17864 -8.90576 -20.1431 32.9435 -54.0243 0.487951 13.5889 -0.0581371 -15.6436 0.805748 -1.8246 -0.859746 -24.8323 -4.96478 0.0 0.0 0.0 1.72188 -16.5571 -20.5987 -12.2698 0.307647 1.85427 -1.62293 26.7271 0.251016 31.8832 -0.0 -0.0 -0.0 0.0 -0.0 21.8748 37.4473 -28.1191 -33.1968 0.0915961 -5.02318 10.1534 -28.4462 1.5405 7.75493 -0.0 -0.0 0.0 0.0 0.0 
815.425422399 634.945 -1892.68499299 6.94642661991 14.0105211868 15.4782698584 -2.11435 -1.03411 -5.39358 -2.09844 -0.689329 -5.44823 -2.01449 0.664131 -5.45135 -2.05588 -0.203802 -5.48776 -6.48869 1.87138 0.557505 -6.48768 3.06009 0.924206 -0.0 0.0 -0.0 10.4483 -2.36787 20.6982 6.10633 -7.89246 46.4761 1.77574 -41.3327 0.66985 14.329 0.280565 -1.80415 -0.229577 -11.202 -6.32104 -0.0 0.0 -0.0 3.85877 3.90774 -7.22139 -19.4679 33.1999 -54.9112 0.566177 15.6672 -0.0778957 -15.2056 0.776514 -1.77675 -1.04243 -25.7196 -4.30685 0.0 0.0 0.0 1.29808 -13.3451 -18.9672 -14.6636 0.321026 2.22128 0.684082 26.1502 -0.104948 32.573 -0.0 -0.0 -0.0 0.0 -0.0 23.2421 41.4011 -29.0677 -31.3893 0.0116503 -4.75736 3.42944 -28.6285 0.530645 7.99437 -0.0 -0.0 0.0 0.0 0.0 
803.598189842 633.84 -1908.4817882 8.6172570648 12.7239566401 15.9383055005 -2.11647 -0.923173 -5.49449 -2.09986 -0.572223 -5.5419 -2.02592 0.802313 -5.51338 -2.0683 -0.0770889 -5.57074 -7.55697 0.80804 0.805202 -7.55536 0.929856 0.971166 -0.0 0.0 -0.0 10.7597 -3.245 21.3955 6.82059 -8.49754 45.7061 1.70117 -40.1177 0.621193 11.0092 0.255908 -1.38089 -0.096928 -8.88352 -4.43123 -0.0 0.0 -0.0 3.41556 3.936 -6.33406 -20.0729 32.3705 -54.6574 0.653626 17.9414 -0.103183 -14.0369 0.700322 -1.64804 -1.10848 -26.292 -4.18117 0.0 0.0 0.0 -0.144963 -12.012 -19.4364 -17.0823 0.318963 2.59235 5.13291 25.4756 -0.776101 33.2614 -0.0 -0.0 -0.0 0.0 -0.0 24.4172 45.6081 -31.0433 -26.3708 -0.165877 -4.00788 2.0837 -27.0559 0.320316 8.88761 -0.0 -0.0 0.0 0.0 0.0 
797.596334018 638.364 -1917.37475086 9.01719440896 14.5316434929 15.442070351 -2.34586 -0.905868 -5.5783 -2.32873 -0.549645 -5.62444 -2.25467 0.866979 -5.58446 -2.29816 -0.0243986 -5.65109 -7.30814 1.31073 3.30339 -7.27753 0.0659512 3.56458 -0.0 0.0 -0.0 10.9519 -3.06208 21.7997 7.03835 -8.49763 45.4053 1.6564 -39.3668 0.592571 8.12545 0.214622 -1.01488 0.224312 -6.85836 -1.39571 -0.0 0.0 -0.0 3.44006 4.4257 -6.34989 -20.4369 31.7647 -55.3049 0.700504 19.1373 -0.118089 -11.7847 0.560989 -1.39576 -0.93079 -23.8786 -4.16309 0.0 0.0 0.0 -0.0584949 -6.85556 -19.4091 -14.8551 0.321433 2.25065 8.4599 26.3225 -1.27334 33.0711 -0.0 -0.0 -0.0 0.0 -0.0 25.2129 47.3015 -31.9737 -20.4333 -0.290236 -3.10562 1.66531 -31.7627 0.264488 9.37267 -0.0 -0.0 0.0 0.0 0.0 
790.700316141 633.641 -1918.75899512 8.33184591152 15.8697391578 16.2978204161 -2.31303 -0.869161 -5.91627 -2.29371 -0.491617 -5.95938 -2.22057 1.0037 -5.89501 -2.26902 0.0618334 -5.97923 -6.00574 1.28861 2.43003 -5.98958 0.589691 2.69351 -0.0 0.0 -0.0 11.0067 -2.82848 21.907 6.62478 -10.8162 46.6062 1.74438 -40.8271 0.649242 3.35408 0.106042 -0.415226 0.705881 -4.28401 2.94051 -0.0 0.0 -0.0 2.8282 5.78149 -5.01926 -17.74 32.4581 -57.5207 0.63732 17.5215 -0.0982164 -10.4141 0.481105 -1.23967 -0.779972 -17.665 -2.4321 0.0 0.0 0.0 0.912873 2.61986 -21.2986 -11.3268 0.298169 1.70989 8.91331 13.2447 -1.27706 26.5576 -0.0 -0.0 -0.0 0.0 -0.0 26.1436 48.3256 -31.3986 -14.0388 -0.319013 -2.12544 -1.82701 -31.6296 -0.29199 6.46239 -0.0 -0.0 0.0 0.0 0.0 
780.194446506 630.078 -1920.08570498 7.84203368459 18.4695451502 16.5528563791 -2.55002 -0.861852 -6.13281 -2.52923 -0.47062 -6.175 -2.45376 1.10291 -6.09421 -2.50552 0.128524 -6.19151 -5.67189 1.76088 2.25884 -5.65834 1.57213 2.60784 -0.0 0.0 -0.0 10.9296 -2.99155 21.7489 5.7969 -12.5562 47.9165 1.60847 -38.5445 0.562434 2.65978 0.086091 -0.328784 1.17244 -3.29133 6.50561 -0.0 0.0 -0.0 2.56974 9.16235 -4.21077 -17.11 32.8322 -58.2715 0.671732 18.4053 -0.10883 -8.37739 0.369368 -1.00433 -0.73649 -13.1298 -0.768892 0.0 0.0 0.0 4.92668 13.8028 -23.2616 -7.99586 0.245697 1.20153 10.5607 3.37769 -1.50274 23.507 -0.0 -0.0 -0.0 0.0 -0.0 25.3683 46.8835 -29.5507 -6.86943 -0.221276 -1.0304 -0.563585 -29.2905 -0.0883746 7.99127 -0.0 -0.0 0.0 0.0 0.0 
742.479824476 630.629 -1926.31046486 6.62791722303 29.0527944678 13.5302954587 -2.27397 -0.732473 -5.52824 -2.25706 -0.379769 -5.5635 -2.20146 1.01194 -5.4841 -2.24338 0.134531 -5.57479 -4.51385 1.06353 1.98554 -4.50312 0.443111 2.20959 -0.0 0.0 -0.0 11.3692 -2.61677 22.6757 0.96666 -10.9387 54.326 1.35984 -33.9635 0.415289 0.117969 0.00414169 -0.0144969 1.28666 -4.34906 6.83954 -0.0 0.0 -0.0 2.33166 9.8677 -3.65641 -15.2216 34.7321 -58.7464 0.814058 21.9621 -0.15796 -8.13631 0.356699 -0.976221 -0.996512 -8.5225 2.89546 0.0 0.0 0.0 3.97661 19.605 -20.5695 -3.53184 0.129219 0.526539 12.111 -1.17423 -1.7294 16.3174 -0.0 -0.0 -0.0 0.0 -0.0 23.8008 44.8359 -26.2608 -7.1909 -0.228589 -1.07919 -5.31894 -30.2005 -0.846641 6.1943 -0.0 -0.0 0.0 0.0 0.0 
742.800421517 630.629 -1926.70287274 6.62310114045 28.9780416008 13.5402246033 -2.27397 -0.732473 -5.52824 -2.25706 -0.379769 -5.5635 -2.20146 1.01194 -5.4841 -2.24338 0.134531 -5.57479 -4.51385 1.06353 1.98554 -4.50312 0.443111 2.20959 -0.0 0.0 -0.0 11.3692 -2.61677 22.6757 0.96666 -10.9387 54.326 1.35984 -33.9635 0.415289 0.117969 0.00414169 -0.0144969 1.28666 -4.34906 6.83954 -0.0 0.0 -0.0 2.33166 9.8677 -3.65641 -15.2216 34.7321 -58.7464 0.814058 21.9621 -0.15796 -8.13631 0.356699 -0.976221 -0.996512 -8.5225 2.89546 0.0 0.0 0.0 3.97661 19.605 -20.5695 -3.53184 0.129219 0.526539 12.111 -1.17423 -1.7294 16.3174 -0.0 -0.0 -0.0 0.0 -0.0 23.8008 44.8359 -26.2608 -7.1909 -0.228589 -1.07919 -5.31894 -30.2005 -0.846641 6.1943 -0.0 -0.0 0.0 0.0 0.0 
717.617102224 625.021 -1927.12102601 5.55519107539 37.297500873 11.9798777506 -1.86511 -0.660743 -5.09922 -1.85072 -0.335365 -5.13082 -1.80634 0.912393 -5.06035 -1.84204 0.102856 -5.14071 -1.7757 -0.676036 2.49171 -1.74858 -3.20202 2.54058 -0.0 0.0 -0.0 11.2202 -2.184 22.3331 -1.75083 -9.53697 57.3314 1.16798 -30.052 0.313538 -1.02403 -0.037205 0.125479 1.71205 -4.60122 9.62995 -0.0 0.0 -0.0 2.30679 8.02337 -3.77063 -15.3724 35.8066 -58.3905 0.876994 23.4817 -0.182272 -9.1111 0.408653 -1.08956 -1.3059 -8.34439 4.97858 0.0 0.0 0.0 3.08883 20.155 -19.1679 -1.87741 0.0727363 0.278924 12.9667 -6.82564 -1.88334 14.7434 -0.0 -0.0 -0.0 0.0 -0.0 27.0617 42.8129 -26.7301 -15.7344 -0.322045 -2.38556 -6.88349 -29.4368 -1.09272 6.49958 -0.0 -0.0 0.0 0.0 0.0 
718.505707113 625.021 -1928.29239097 5.53996340589 37.0909067558 12.0050674574 -1.86511 -0.660743 -5.09922 -1.85072 -0.335365 -5.13082 -1.80634 0.912393 -5.06035 -1.84204 0.102856 -5.14071 -1.7757 -0.676036 2.49171 -1.74858 -3.20202 2.54058 -0.0 0.0 -0.0 11.2202 -2.184 22.3331 -1.75083 -9.53697 57.3314 1.16798 -30.052 0.313538 -1.02403 -0.037205 0.125479 1.71205 -4.60122 9.62995 -0.0 0.0 -0.0 2.30679 8.02337 -3.77063 -15.3724 35.8066 -58.3905 0.876994 23.4817 -0.182272 -9.1111 0.408653 -1.08956 -1.3059 -8.34439 4.97858 0.0 0.0 0.0 3.08883 20.155 -19.1679 -1.87741 0.0727363 0.278924 12.9667 -6.82564 -1.88334 14.7434 -0.0 -0.0 -0.0 0.0 -0.0 27.0617 42.8129 -26.7301 -15.7344 -0.322045 -2.38556 -6.88349 -29.4368 -1.09272 6.49958 -0.0 -0.0 0.0 0.0 0.0 
718.145016335 625.021 -1927.81798809 5.54611690028 37.1746464657 11.9948738875 -1.86511 -0.660743 -5.09922 -1.85072 -0.335365 -5.13082 -1.80634 0.912393 -5.06035 -1.84204 0.102856 -5.14071 -1.7757 -0.676036 2.49171 -1.74858 -3.20202 2.54058 -0.0 0.0 -0.0 11.2202 -2.184 22.3331 -1.75083 -9.53697 57.3314 1.16798 -30.052 0.313538 -1.02403 -0.037205 0.125479 1.71205 -4.60122 9.62995 -0.0 0.0 -0.0 2.30679 8.02337 -3.77063 -15.3724 35.8066 -58.3905 0.876994 23.4817 -0.182272 -9.1111 0.408653 -1.08956 -1.3059 -8.34439 4.97858 0.0 0.0 0.0 3.08883 20.155 -19.1679 -1.87741 0.0727363 0.278924 12.9667 -6.82564 -1.88334 14.7434 -0.0 -0.0 -0.0 0.0 -0.0 27.0617 42.8129 -26.7301 -15.7344 -0.322045 -2.38556 -6.88349 -29.4368 -1.09272 6.49958 -0.0 -0.0 0.0 0.0 0.0 
720.146390176 625.021 -1930.43224808 5.51243748995 36.7120046289 12.0509100723 -1.86511 -0.660743 -5.09922 -1.85072 -0.335365 -5.13082 -1.80634 0.912393 -5.06035 -1.84204 0.102856 -5.14071 -1.7757 -0.676036 2.49171 -1.74858 -3.20202 2.54058 -0.0 0.0 -0.0 11.2202 -2.184 22.3331 -1.75083 -9.53697 57.3314 1.16798 -30.052 0.313538 -1.02403 -0.037205 0.125479 1.71205 -4.60122 9.62995 -0.0 0.0 -0.0 2.30679 8.02337 -3.77063 -15.3724 35.8066 -58.3905 0.876994 23.4817 -0.182272 -9.1111 0.408653 -1.08956 -1.3059 -8.34439 4.97858 0.0 0.0 0.0 3.08883 20.155 -19.1679 -1.87741 0.0727363 0.278924 12.9667 -6.82564 -1.88334 14.7434 -0.0 -0.0 -0.0 0.0 -0.0 27.0617 42.8129 -26.7301 -15.7344 -0.322045 -2.38556 -6.88349 -29.4368 -1.09272 6.49958 -0.0 -0.0 0.0 0.0 0.0 
715.490056571 630.004 -1934.23661847 5.1881606822 38.1842007854 11.1136164282 -1.7049 -0.627458 -4.79279 -1.69219 -0.321572 -4.82292 -1.65294 0.838492 -4.76049 -1.68455 0.0770549 -4.83298 -1.46471 -1.94105 1.59343 -1.44037 -4.76702 1.44439 -0.0 0.0 -0.0 10.8138 -2.71141 21.4892 -3.69321 -8.82589 59.0878 1.00755 -26.5238 0.237474 -1.22859 -0.0449055 0.150466 2.39761 -6.69525 13.4625 -0.0 0.0 -0.0 2.36413 7.38195 -3.94426 -14.7068 36.2457 -59.5394 0.909205 24.2462 -0.195304 -9.6827 0.440015 -1.15561 -1.75229 -9.87275 7.16007 0.0 0.0 0.0 3.58505 19.5933 -19.0765 -2.12546 0.0816605 0.315946 14.8881 -9.92516 -2.17814 13.1101 -0.0 -0.0 -0.0 0.0 -0.0 24.9846 38.6399 -24.3738 -18.3105 -0.31192 -2.78066 -3.05648 -29.6584 -0.482809 5.01659 -0.0 -0.0 0.0 0.0 0.0 
719.210183417 630.004 -1938.97919912 5.12974392638 37.3490690411 11.2089964584 -1.7049 -0.627458 -4.79279 -1.69219 -0.321572 -4.82292 -1.65294 0.838492 -4.76049 -1.68455 0.0770549 -4.83298 -1.46471 -1.94105 1.59343 -1.44037 -4.76702 1.44439 -0.0 0.0 -0.0 10.8138 -2.71141 21.4892 -3.69321 -8.82589 59.0878 1.00755 -26.5238 0.237474 -1.22859 -0.0449055 0.150466 2.39761 -6.69525 13.4625 -0.0 0.0 -0.0 2.36413 7.38195 -3.94426 -14.7068 36.2457 -59.5394 0.909205 24.2462 -0.195304 -9.6827 0.440015 -1.15561 -1.75229 -9.87275 7.16007 0.0 0.0 0.0 3.58505 19.5933 -19.0765 -2.12546 0.0816605 0.315946 14.8881 -9.92516 -2.17814 13.1101 -0.0 -0.0 -0.0 0.0 -0.0 24.9846 38.6399 -24.3738 -18.3105 -0.31192 -2.78066 -3.05648 -29.6584 -0.482809 5.01659 -0.0 -0.0 0.0 0.0 0.0 
